
<svg xmlns="http://www.w3.org/2000/svg" height="12px" viewBox="0 0 30 30">
  <path fill="#6B6B6B" class="cls-1" d="M14.9,19.12c-.16,.21-.27,.41-.43,.57-3.04,3.08-6.09,6.16-9.14,9.23-.97,.98-2.13,1.29-3.43,.8-2.11-.79-2.54-3.39-.84-5.08,3.07-3.06,6.15-6.1,9.23-9.14,.16-.16,.37-.27,.59-.43-.26-.28-.41-.44-.57-.6C7.23,11.43,4.15,8.39,1.08,5.33-.12,4.15-.32,2.68,.49,1.36,1.5-.29,3.83-.47,5.29,.99c3.07,3.09,6.13,6.18,9.19,9.28,.16,.16,.28,.35,.44,.56,.26-.25,.43-.4,.59-.56,3.06-3.09,6.12-6.19,9.19-9.27C25.7-.01,27.1-.27,28.31,.3c1.92,.91,2.26,3.37,.66,4.98-1.61,1.63-3.26,3.22-4.88,4.84-1.6,1.61-3.17,3.25-4.81,4.93,.08,.09,.23,.25,.38,.41,3.08,3.05,6.16,6.09,9.23,9.14,1.22,1.21,1.43,2.69,.6,4.02-1.01,1.61-3.33,1.8-4.77,.36-2.38-2.39-4.75-4.8-7.12-7.19-.85-.86-1.72-1.69-2.71-2.67Z"/>
</svg>